%TF.GenerationSoftware,KiCad,Pcbnew,5.1.10-88a1d61d58~88~ubuntu20.10.1*%
%TF.CreationDate,2021-07-06T11:57:07+02:00*%
%TF.ProjectId,n2k_meteo_gps,65766f5f-6170-42e6-9b69-6361645f7063,rev?*%
%TF.SameCoordinates,Original*%
%TF.FileFunction,Copper,L1,Top*%
%TF.FilePolarity,Positive*%
%FSLAX46Y46*%
G04 Gerber Fmt 4.6, Leading zero omitted, Abs format (unit mm)*
G04 Created by KiCad (PCBNEW 5.1.10-88a1d61d58~88~ubuntu20.10.1) date 2021-07-06 11:57:07*
%MOMM*%
%LPD*%
G01*
G04 APERTURE LIST*
%TA.AperFunction,ComponentPad*%
%ADD10C,3.000000*%
%TD*%
%TA.AperFunction,ComponentPad*%
%ADD11R,3.000000X3.000000*%
%TD*%
%TA.AperFunction,ComponentPad*%
%ADD12O,1.700000X1.700000*%
%TD*%
%TA.AperFunction,ComponentPad*%
%ADD13R,1.700000X1.700000*%
%TD*%
%TA.AperFunction,ComponentPad*%
%ADD14O,1.600000X1.600000*%
%TD*%
%TA.AperFunction,ComponentPad*%
%ADD15R,1.600000X1.600000*%
%TD*%
%TA.AperFunction,ComponentPad*%
%ADD16O,1.500000X2.500000*%
%TD*%
%TA.AperFunction,ComponentPad*%
%ADD17R,1.500000X2.500000*%
%TD*%
%TA.AperFunction,ComponentPad*%
%ADD18O,2.000000X1.200000*%
%TD*%
%TA.AperFunction,ComponentPad*%
%ADD19R,2.000000X1.200000*%
%TD*%
%TA.AperFunction,ComponentPad*%
%ADD20C,1.600000*%
%TD*%
%TA.AperFunction,ComponentPad*%
%ADD21C,1.700000*%
%TD*%
%TA.AperFunction,ComponentPad*%
%ADD22C,1.800000*%
%TD*%
%TA.AperFunction,ComponentPad*%
%ADD23R,1.800000X1.800000*%
%TD*%
%TA.AperFunction,ViaPad*%
%ADD24C,0.800000*%
%TD*%
%TA.AperFunction,Conductor*%
%ADD25C,0.250000*%
%TD*%
G04 APERTURE END LIST*
D10*
%TO.P,J3,2*%
%TO.N,GND*%
X31750000Y-82550000D03*
D11*
%TO.P,J3,1*%
%TO.N,+12V*%
X26670000Y-82550000D03*
%TD*%
D12*
%TO.P,J4,2*%
%TO.N,Net-(J4-Pad2)*%
X26670000Y-60960000D03*
D13*
%TO.P,J4,1*%
%TO.N,Net-(D3-Pad2)*%
X26670000Y-58420000D03*
%TD*%
D12*
%TO.P,J1,2*%
%TO.N,Net-(J1-Pad2)*%
X26670000Y-49530000D03*
D13*
%TO.P,J1,1*%
%TO.N,Net-(J1-Pad1)*%
X26670000Y-52070000D03*
%TD*%
D14*
%TO.P,U3,8*%
%TO.N,GND*%
X29210000Y-38100000D03*
%TO.P,U3,4*%
%TO.N,Net-(U1-Pad22)*%
X36830000Y-30480000D03*
%TO.P,U3,7*%
%TO.N,Net-(J1-Pad1)*%
X29210000Y-35560000D03*
%TO.P,U3,3*%
%TO.N,Net-(J2-Pad4)*%
X36830000Y-33020000D03*
%TO.P,U3,6*%
%TO.N,Net-(J1-Pad2)*%
X29210000Y-33020000D03*
%TO.P,U3,2*%
%TO.N,GND*%
X36830000Y-35560000D03*
%TO.P,U3,5*%
%TO.N,Net-(D3-Pad2)*%
X29210000Y-30480000D03*
D15*
%TO.P,U3,1*%
%TO.N,Net-(U1-Pad21)*%
X36830000Y-38100000D03*
%TD*%
D16*
%TO.P,U2,3*%
%TO.N,Net-(J2-Pad4)*%
X33020000Y-73660000D03*
%TO.P,U2,2*%
%TO.N,GND*%
X30480000Y-73660000D03*
D17*
%TO.P,U2,1*%
%TO.N,+12V*%
X27940000Y-73660000D03*
%TD*%
D18*
%TO.P,U1,38*%
%TO.N,N/C*%
X67310000Y-84380000D03*
%TO.P,U1,37*%
X67310000Y-81840000D03*
%TO.P,U1,36*%
X67310000Y-79300000D03*
%TO.P,U1,35*%
X67310000Y-76760000D03*
%TO.P,U1,34*%
X67310000Y-74220000D03*
%TO.P,U1,33*%
X67310000Y-71680000D03*
%TO.P,U1,32*%
X67310000Y-69140000D03*
%TO.P,U1,31*%
X67310000Y-66600000D03*
%TO.P,U1,30*%
%TO.N,Net-(J2-Pad7)*%
X67310000Y-64060000D03*
%TO.P,U1,29*%
%TO.N,N/C*%
X67310000Y-61520000D03*
%TO.P,U1,28*%
X67310000Y-58980000D03*
%TO.P,U1,27*%
X67310000Y-56440000D03*
%TO.P,U1,26*%
%TO.N,GND*%
X67310000Y-53900000D03*
%TO.P,U1,25*%
%TO.N,N/C*%
X67310000Y-51360000D03*
%TO.P,U1,24*%
X67310000Y-48820000D03*
%TO.P,U1,23*%
X67310000Y-46280000D03*
%TO.P,U1,22*%
%TO.N,Net-(U1-Pad22)*%
X67310000Y-43740000D03*
%TO.P,U1,21*%
%TO.N,Net-(U1-Pad21)*%
X67310000Y-41200000D03*
%TO.P,U1,20*%
%TO.N,GND*%
X67310000Y-38660000D03*
%TO.P,U1,19*%
%TO.N,Net-(J2-Pad4)*%
X41910000Y-84380000D03*
%TO.P,U1,18*%
%TO.N,N/C*%
X41910000Y-81840000D03*
%TO.P,U1,17*%
X41910000Y-79300000D03*
%TO.P,U1,16*%
X41910000Y-76760000D03*
%TO.P,U1,15*%
%TO.N,Net-(D2-Pad2)*%
X41910000Y-74220000D03*
%TO.P,U1,14*%
%TO.N,GND*%
X41910000Y-71680000D03*
%TO.P,U1,13*%
%TO.N,N/C*%
X41910000Y-69140000D03*
%TO.P,U1,12*%
%TO.N,Net-(D1-Pad2)*%
X41910000Y-66600000D03*
%TO.P,U1,11*%
%TO.N,Net-(J4-Pad2)*%
X41910000Y-64060000D03*
%TO.P,U1,10*%
%TO.N,N/C*%
X41910000Y-61520000D03*
%TO.P,U1,9*%
X41910000Y-58980000D03*
%TO.P,U1,8*%
X41910000Y-56440000D03*
%TO.P,U1,7*%
X41910000Y-53900000D03*
%TO.P,U1,6*%
X41910000Y-51360000D03*
%TO.P,U1,5*%
X41910000Y-48820000D03*
%TO.P,U1,4*%
X41910000Y-46280000D03*
%TO.P,U1,3*%
X41910000Y-43740000D03*
%TO.P,U1,2*%
X41910000Y-41200000D03*
D19*
%TO.P,U1,1*%
%TO.N,Net-(D3-Pad2)*%
X41910000Y-38660000D03*
%TD*%
D14*
%TO.P,R2,2*%
%TO.N,Net-(J4-Pad2)*%
X46990000Y-59690000D03*
D20*
%TO.P,R2,1*%
%TO.N,GND*%
X46990000Y-67310000D03*
%TD*%
D21*
%TO.P,J2,8*%
%TO.N,GND*%
X73660000Y-33020000D03*
%TO.P,J2,7*%
%TO.N,Net-(J2-Pad7)*%
X73660000Y-35560000D03*
%TO.P,J2,6*%
%TO.N,N/C*%
X73660000Y-38100000D03*
D13*
%TO.P,J2,5*%
X73660000Y-40640000D03*
D21*
%TO.P,J2,4*%
%TO.N,Net-(J2-Pad4)*%
X73660000Y-66040000D03*
%TO.P,J2,3*%
%TO.N,N/C*%
X73660000Y-68580000D03*
%TO.P,J2,2*%
X73660000Y-71120000D03*
D13*
%TO.P,J2,1*%
%TO.N,Net-(J2-Pad1)*%
X73660000Y-73660000D03*
%TD*%
%TO.P,J5,1*%
%TO.N,Net-(J2-Pad1)*%
X73660000Y-82550000D03*
%TD*%
D14*
%TO.P,R1,2*%
%TO.N,GND*%
X38100000Y-43180000D03*
D20*
%TO.P,R1,1*%
%TO.N,Net-(D1-Pad1)*%
X30480000Y-43180000D03*
%TD*%
D22*
%TO.P,D3,2*%
%TO.N,Net-(D3-Pad2)*%
X34290000Y-49530000D03*
D23*
%TO.P,D3,1*%
%TO.N,Net-(D1-Pad1)*%
X31750000Y-49530000D03*
%TD*%
D22*
%TO.P,D2,2*%
%TO.N,Net-(D2-Pad2)*%
X34290000Y-63500000D03*
D23*
%TO.P,D2,1*%
%TO.N,Net-(D1-Pad1)*%
X31750000Y-63500000D03*
%TD*%
D22*
%TO.P,D1,2*%
%TO.N,Net-(D1-Pad2)*%
X34290000Y-55880000D03*
D23*
%TO.P,D1,1*%
%TO.N,Net-(D1-Pad1)*%
X31750000Y-55880000D03*
%TD*%
D24*
%TO.N,Net-(D3-Pad2)*%
X36830000Y-40640000D03*
%TD*%
D25*
%TO.N,Net-(D1-Pad1)*%
X31750000Y-49530000D02*
X31595002Y-49530000D01*
%TO.N,Net-(D3-Pad2)*%
X34290000Y-35560000D02*
X29210000Y-30480000D01*
X31750000Y-52070000D02*
X26670000Y-57150000D01*
X26670000Y-57150000D02*
X26670000Y-58420000D01*
X33020000Y-52070000D02*
X31750000Y-52070000D01*
X34290000Y-50800000D02*
X33020000Y-52070000D01*
X34290000Y-49530000D02*
X34290000Y-50800000D01*
X36830000Y-40640000D02*
X34290000Y-38100000D01*
X34290000Y-38100000D02*
X34290000Y-35560000D01*
%TO.N,GND*%
X38100000Y-43180000D02*
X38100000Y-41910000D01*
X38100000Y-41910000D02*
X39370000Y-40640000D01*
X39370000Y-40640000D02*
X39370000Y-38100000D01*
X39370000Y-38100000D02*
X38100000Y-36830000D01*
X38100000Y-36830000D02*
X36830000Y-35560000D01*
X32460000Y-71680000D02*
X30480000Y-73660000D01*
X41910000Y-71680000D02*
X32460000Y-71680000D01*
X30480000Y-81280000D02*
X31750000Y-82550000D01*
X30480000Y-73660000D02*
X30480000Y-81280000D01*
%TO.N,+12V*%
X26670000Y-74930000D02*
X27940000Y-73660000D01*
X26670000Y-82550000D02*
X26670000Y-74930000D01*
%TO.N,Net-(J2-Pad4)*%
X43180000Y-34290000D02*
X43180000Y-34290000D01*
X41910000Y-33020000D02*
X36830000Y-33020000D01*
X44450000Y-35560000D02*
X41910000Y-33020000D01*
X44450000Y-82550000D02*
X44450000Y-35560000D01*
X42620000Y-84380000D02*
X44450000Y-82550000D01*
X41910000Y-84380000D02*
X42620000Y-84380000D01*
X33020000Y-75490000D02*
X33020000Y-73660000D01*
X41910000Y-84380000D02*
X33020000Y-75490000D01*
X67094990Y-70065010D02*
X69634990Y-70065010D01*
X69634990Y-70065010D02*
X73660000Y-66040000D01*
X54610000Y-82550000D02*
X67094990Y-70065010D01*
X44450000Y-82550000D02*
X54610000Y-82550000D01*
%TO.N,Net-(J4-Pad2)*%
X27940000Y-59690000D02*
X26670000Y-60960000D01*
X37540000Y-59690000D02*
X27940000Y-59690000D01*
X41910000Y-64060000D02*
X37540000Y-59690000D01*
%TO.N,Net-(U1-Pad22)*%
X46990000Y-37026998D02*
X46990000Y-37026998D01*
X40443002Y-30480000D02*
X36830000Y-30480000D01*
X53703002Y-43740000D02*
X40443002Y-30480000D01*
X67310000Y-43740000D02*
X53703002Y-43740000D01*
%TO.N,Net-(U1-Pad21)*%
X48260000Y-35560000D02*
X48260000Y-35560000D01*
%TO.N,Net-(J1-Pad1)*%
X29210000Y-35560000D02*
X30480000Y-35560000D01*
X30480000Y-35560000D02*
X31750000Y-36830000D01*
X31750000Y-36830000D02*
X31750000Y-38100000D01*
X31750000Y-38100000D02*
X27940000Y-41910000D01*
X27940000Y-41910000D02*
X27940000Y-46990000D01*
X27940000Y-46990000D02*
X29210000Y-48260000D01*
X29210000Y-49530000D02*
X26670000Y-52070000D01*
X29210000Y-48260000D02*
X29210000Y-49530000D01*
%TD*%
M02*
