M48
; DRILL file {KiCad 5.1.10-88a1d61d58~88~ubuntu20.10.1} date Tue Jul  6 14:03:46 2021
; FORMAT={-:-/ absolute / inch / decimal}
; #@! TF.CreationDate,2021-07-06T14:03:46+02:00
; #@! TF.GenerationSoftware,Kicad,Pcbnew,5.1.10-88a1d61d58~88~ubuntu20.10.1
; #@! TF.FileFunction,Plated,1,2,PTH
FMAT,2
INCH
T1C0.0157
T2C0.0315
T3C0.0354
T4C0.0394
T5C0.0598
%
G90
G05
T1
X1.45Y-1.6
T2
X1.15Y-1.2
X1.15Y-1.3
X1.15Y-1.4
X1.15Y-1.5
X1.2Y-1.7
X1.45Y-1.2
X1.45Y-1.3
X1.45Y-1.4
X1.45Y-1.5
X1.5Y-1.7
X1.65Y-1.522
X1.65Y-1.622
X1.65Y-1.722
X1.65Y-1.822
X1.65Y-1.922
X1.65Y-2.022
X1.65Y-2.122
X1.65Y-2.222
X1.65Y-2.322
X1.65Y-2.422
X1.65Y-2.522
X1.65Y-2.622
X1.65Y-2.722
X1.65Y-2.822
X1.65Y-2.922
X1.65Y-3.022
X1.65Y-3.122
X1.65Y-3.222
X1.65Y-3.322
X1.85Y-2.35
X1.85Y-2.65
X2.65Y-1.522
X2.65Y-1.622
X2.65Y-1.722
X2.65Y-1.822
X2.65Y-1.922
X2.65Y-2.022
X2.65Y-2.122
X2.65Y-2.222
X2.65Y-2.322
X2.65Y-2.422
X2.65Y-2.522
X2.65Y-2.622
X2.65Y-2.722
X2.65Y-2.822
X2.65Y-2.922
X2.65Y-3.022
X2.65Y-3.122
X2.65Y-3.222
X2.65Y-3.322
T3
X1.25Y-1.95
X1.25Y-2.2
X1.25Y-2.5
X1.35Y-1.95
X1.35Y-2.2
X1.35Y-2.5
T4
X1.05Y-1.95
X1.05Y-2.05
X1.05Y-2.3
X1.05Y-2.4
X1.1Y-2.9
X1.2Y-2.9
X1.3Y-2.9
X2.9Y-1.3
X2.9Y-1.4
X2.9Y-1.5
X2.9Y-1.6
X2.9Y-2.6
X2.9Y-2.7
X2.9Y-2.8
X2.9Y-2.9
X2.9Y-3.25
T5
X1.05Y-3.25
X1.25Y-3.25
T0
M30
